<svg id="visual" viewBox="0 0 900 600" width="900" height="600" xmlns="http://www.w3.org/2000/svg" xmlns:xlink="http://www.w3.org/1999/xlink" version="1.1"><g transform="translate(480.8155742057226 325.5397425820748)"><path d="M151.7 -194.3C187.4 -151 200.5 -94.3 198.6 -44.1C196.6 6.1 179.5 49.9 158.2 95.5C136.9 141.1 111.4 188.5 73.2 203.3C35.1 218 -15.6 200.2 -73.2 185.8C-130.8 171.5 -195.3 160.8 -229.9 122.3C-264.5 83.9 -269.1 17.8 -246.6 -32C-224.1 -81.7 -174.4 -115.2 -128.8 -156.8C-83.1 -198.4 -41.6 -248.2 8.2 -258C58.1 -267.9 116.1 -237.7 151.7 -194.3" fill="#FFAF4D"></path></g></svg>