<svg id="visual" viewBox="0 0 900 600" width="900" height="600" xmlns="http://www.w3.org/2000/svg" xmlns:xlink="http://www.w3.org/1999/xlink" version="1.1"><path d="M69 0L73.3 14.3C77.7 28.7 86.3 57.3 94 85.8C101.7 114.3 108.3 142.7 111.5 171.2C114.7 199.7 114.3 228.3 106.2 257C98 285.7 82 314.3 79.7 343C77.3 371.7 88.7 400.3 97.2 428.8C105.7 457.3 111.3 485.7 112.3 514.2C113.3 542.7 109.7 571.3 107.8 585.7L106 600L0 600L0 585.7C0 571.3 0 542.7 0 514.2C0 485.7 0 457.3 0 428.8C0 400.3 0 371.7 0 343C0 314.3 0 285.7 0 257C0 228.3 0 199.7 0 171.2C0 142.7 0 114.3 0 85.8C0 57.3 0 28.7 0 14.3L0 0Z" fill="#ff0000" stroke-linecap="round" stroke-linejoin="miter"></path></svg>