<svg id="visual" viewBox="0 0 900 600" width="900" height="600" xmlns="http://www.w3.org/2000/svg" xmlns:xlink="http://www.w3.org/1999/xlink" version="1.1"><rect x="0" y="0" width="900" height="600" fill="#fc9c27"></rect><path d="M403 0L449.8 16.7C496.7 33.3 590.3 66.7 560.8 100C531.3 133.3 378.7 166.7 350.5 200C322.3 233.3 418.7 266.7 512 300C605.3 333.3 695.7 366.7 744.7 400C793.7 433.3 801.3 466.7 774.5 500C747.7 533.3 686.3 566.7 655.7 583.3L625 600L0 600L0 583.3C0 566.7 0 533.3 0 500C0 466.7 0 433.3 0 400C0 366.7 0 333.3 0 300C0 266.7 0 233.3 0 200C0 166.7 0 133.3 0 100C0 66.7 0 33.3 0 16.7L0 0Z" fill="#f26630" stroke-linecap="round" stroke-linejoin="miter"></path></svg>